<svg xmlns="http://www.w3.org/2000/svg" viewBox="0 0 32 32" role="img" aria-label="DeployCode">
    <style>
        /* The tile flips with the browser chrome so the mark never sinks into it. */
        :root { --tile: #161616; --mark: #fafafa; }
        @media (prefers-color-scheme: dark) { :root { --tile: #fafafa; --mark: #161616; } }
    </style>
    <path
        fill="var(--tile)"
        d="M16.1694 0.0439453C24.8699 0.0439453 31.9233 7.09735 31.9233 15.7979C31.9233 24.3622 25.089 31.33 16.5767 31.5459L16.1694 31.5518H6.71729C3.2372 31.5517 0.416541 28.7301 0.416504 25.25V6.3457C0.416504 2.86557 3.23718 0.0440535 6.71729 0.0439453H16.1694Z"
    />
    <path
        fill="var(--mark)"
        d="M21.9647 7.46543C23.1696 6.9695 24.3743 8.17423 23.8784 9.37907L18.1717 23.2433C17.6515 24.5071 15.8375 24.4344 15.4201 23.1331L14.9881 21.7861C14.1604 19.2057 12.1381 17.1834 9.55765 16.3557L8.21072 15.9237C6.90935 15.5063 6.83667 13.6923 8.10047 13.1721L21.9647 7.46543Z"
    />
    <path
        fill="var(--mark)"
        opacity="0.45"
        d="M8.77096 19.1212C10.4291 19.6312 11.7426 20.9047 12.3035 22.5464L12.8243 24.0704C13.0164 24.6326 12.5985 25.217 12.0044 25.217L6.9931 25.217C6.51458 25.217 6.12665 24.8291 6.12665 24.3505L6.12664 19.4809C6.12664 18.898 6.69065 18.4814 7.2478 18.6528L8.77096 19.1212Z"
    />
</svg>
